<svg width="602" height="396" viewBox="0 0 602 396" fill="none" xmlns="http://www.w3.org/2000/svg">
<path opacity="0.15" d="M503.522 381.141H361.483C360.677 381.143 359.879 380.985 359.134 380.678C358.39 380.37 357.713 379.919 357.143 379.35C356.573 378.781 356.12 378.105 355.812 377.361C355.503 376.617 355.344 375.819 355.344 375.013V375.013C355.347 373.387 355.995 371.828 357.146 370.679C358.297 369.53 359.857 368.885 361.483 368.885H503.522C505.147 368.885 506.706 369.531 507.855 370.68C509.005 371.829 509.65 373.388 509.65 375.013V375.013C509.65 376.638 509.005 378.197 507.855 379.346C506.706 380.496 505.147 381.141 503.522 381.141V381.141Z" fill="#292929"/>
<path opacity="0.15" d="M336.95 382.171H305.279C303.021 382.171 301.19 384.002 301.19 386.26C301.19 388.518 303.021 390.349 305.279 390.349H336.95C339.208 390.349 341.039 388.518 341.039 386.26C341.039 384.002 339.208 382.171 336.95 382.171Z" fill="#292929"/>
<path d="M529.168 318.653C524.299 308.73 521.917 297.771 522.229 286.722C522.385 281.354 523.176 275.964 522.499 270.627C521.074 259.338 512.896 249.548 502.669 244.554C492.441 239.56 480.476 238.946 469.302 241.12C451.199 244.637 436.674 255.957 434.968 275.08C433.99 286.046 436.102 297.106 435.134 308.072C434.898 310.764 434.414 313.428 433.688 316.031L428.216 316.427L386.703 319.413C377.578 320.079 368.37 320.297 361.909 327.268C355.022 334.72 350.582 344.102 349.185 354.153C348.144 361.706 349.299 370.269 355.021 375.294C355.489 375.702 355.979 376.084 356.488 376.439H495.396C504.981 376.525 514.29 373.231 521.688 367.137C522.135 366.763 522.572 366.388 522.999 365.993C536.805 353.424 536.899 334.353 529.168 318.653Z" fill="white" stroke="#18216D" stroke-miterlimit="10"/>
<path d="M451.854 307.177C448.442 303.9 444.78 300.841 441.565 297.366C437.507 292.975 435.208 287.732 432.742 282.342C430.11 276.578 428.008 270.398 428.174 263.979C428.563 255.836 432.135 248.173 438.121 242.639C441.492 239.435 446.663 236.709 447.401 231.871C448.119 227.199 446.996 221.904 449.805 217.752C453.779 211.853 464.829 217.336 468.231 221.311C472.694 226.513 472.205 235.169 478.344 239.081C480.664 240.559 483.546 240.902 486.074 241.88C488.487 242.821 490.643 244.321 492.364 246.256C494.086 248.191 495.325 250.506 495.979 253.012C497.165 257.705 497.123 262.72 500.723 266.361C504.511 270.19 508.006 273.467 510.035 278.69C511.446 282.743 512.303 286.967 512.584 291.248C513.489 301.496 506.102 310.455 497.384 315.303C490.681 318.968 483.036 320.545 475.431 319.829C469.105 319.257 460.865 317.509 456.807 312.473C455.271 310.604 453.617 308.835 451.854 307.177V307.177Z" fill="#18216D"/>
<path d="M440.513 273.394C438.322 279.606 434.513 285.12 429.48 289.368C424.447 293.616 418.372 296.446 411.881 297.564C413.291 300.185 414.341 302.985 415.002 305.887C423.908 306.002 433.22 303.515 439.556 297.262C445.892 291.009 448.41 280.511 443.895 272.833C443.343 271.865 440.867 272.364 440.513 273.394Z" fill="white" stroke="#18216D" stroke-miterlimit="10"/>
<path d="M435.717 268.224C437.216 264.166 439.879 260.212 441.814 256.508L445.144 250.068C445.882 248.643 446.767 245.573 448.421 244.949C449.763 244.45 451.355 245.605 452.583 246.052C454.372 246.697 456.224 247.186 458.024 247.821C461.593 249.101 465.151 250.755 467.762 253.585C469.181 255.027 470.289 256.743 471.019 258.629C471.749 260.515 472.085 262.53 472.007 264.551C471.831 266.881 470.821 269.066 470.28 271.345C469.742 274.028 469.557 276.77 469.729 279.502C469.935 287.92 470.584 296.32 471.674 304.67C471.994 306.118 471.93 307.624 471.487 309.04C470.051 312.452 461 311.578 457.774 311.87C452.624 312.327 446.694 313.555 441.835 311.214C441.188 305.895 440.879 300.54 440.909 295.181C440.909 290.718 442.168 286.213 439.348 282.373C436.883 279.034 434.011 276.058 434.781 271.595C434.988 270.444 435.302 269.316 435.717 268.224V268.224Z" fill="#005FEC"/>
<path d="M446.975 243.253C447.094 241.869 447.094 240.476 446.975 239.092C446.85 237.957 446.028 237.489 445.175 236.782C441.523 233.785 440.794 229.062 441.949 224.692C442.095 224.229 442.189 223.751 442.23 223.267C442.236 222.814 442.205 222.362 442.137 221.914C441.956 220.196 442.403 218.47 443.395 217.055C445.622 214.048 450.949 213.861 453.914 215.796C457.951 218.408 458.503 223.985 458.648 228.791C458.763 232.537 458.867 236.272 458.981 240.018C459.096 244.034 459.418 249.09 455.225 251.213C453.757 251.94 452.074 252.107 450.491 251.681C449.548 251.45 448.691 250.952 448.025 250.245C446.444 248.424 446.86 245.48 446.975 243.253Z" fill="white" stroke="#18216D" stroke-miterlimit="10"/>
<path d="M456.963 234.753C454.744 236.881 451.86 238.178 448.795 238.426C451.549 239.221 454.454 239.342 457.264 238.779C457.071 237.446 456.97 236.101 456.963 234.753V234.753Z" fill="#18216D"/>
<path d="M346.615 369.977L352.514 363.901C354.711 361.774 356.71 359.451 358.487 356.962C359.933 354.785 361.034 352.399 361.753 349.887C362.388 347.66 362.679 345.153 361.566 343.134C360.867 342.033 359.869 341.154 358.687 340.601C357.505 340.048 356.191 339.844 354.897 340.013C352.313 340.406 349.906 341.566 347.989 343.342C343.598 347.046 340.872 351.77 338.292 356.785C335.358 362.486 332.309 368.129 329.146 373.713C328.533 374.753 327.066 376.834 327.274 378.103C327.482 379.373 329.355 379.841 330.77 379.966C334.026 380.267 337.147 379.705 339.478 377.312C341.808 374.919 344.233 372.474 346.615 369.977Z" fill="#005FEC"/>
<path d="M330.062 371.569C329.797 371.397 329.501 371.279 329.19 371.224C328.879 371.168 328.56 371.176 328.252 371.247C327.676 371.415 327.139 371.694 326.67 372.069C322.145 375.188 317.11 377.495 311.792 378.884C309.149 379.57 306.247 380.153 304.509 382.234C303.136 383.857 304.415 385.355 306.018 386.094C308.533 387.046 311.262 387.284 313.904 386.78C320.261 385.792 326.618 387.488 332.986 386.78C337.772 386.25 339.114 382.702 340.404 378.54C340.602 377.906 340.841 377.271 341.018 376.636C339.488 376.033 337.48 376.282 335.816 375.669C334.376 375.176 333.062 374.373 331.966 373.317C331.397 372.667 330.759 372.081 330.062 371.569V371.569Z" fill="#18216D"/>
<path d="M472.632 310.215C472.028 307.718 471.134 305.148 469.271 303.536C467.409 301.923 464.35 301.673 462.81 303.64C462.28 304.306 461.978 305.148 461.447 305.814C459.855 307.791 455.86 306.459 453.79 306.407C450.564 306.324 447.339 306.511 444.124 306.73C436.279 307.25 428.445 307.937 420.61 308.623L398.668 310.548C394.943 310.871 391.208 311.349 387.473 311.589C384.247 311.765 381.594 311.016 378.421 312.504C375.819 313.885 373.415 315.611 371.273 317.634C367.933 320.495 364.552 323.304 361.244 326.207C359.35 327.861 357.488 329.546 355.667 331.284C350.579 336.153 345.897 341.428 341.215 346.682C337.282 351.121 333.343 355.557 329.396 359.989C336.81 365.911 343.824 372.317 350.392 379.164C351.588 378.124 352.743 376.792 353.513 376.043C355.261 374.482 356.947 372.87 358.59 371.216C359.48 370.428 360.168 369.44 360.598 368.334C360.859 367.439 360.775 366.471 360.983 365.556C361.628 362.57 364.843 361.071 367.164 359.095C370.503 356.244 371.013 352.249 373.156 348.69C375.06 345.507 378.941 344.112 381.553 341.48C383.987 339.014 385.194 335.591 387.275 332.813C388.971 330.545 393.143 327.393 396.004 329.494C398.283 331.159 397.95 334.967 400.697 336.34C402.58 337.277 404.858 337.225 406.866 337.578C413.775 338.806 420.766 339.493 427.737 340.18L439.65 341.345C446.267 341.99 453.061 342.625 459.47 340.721C462.133 339.98 464.619 338.708 466.779 336.983C468.939 335.258 470.728 333.114 472.039 330.68C472.648 329.451 473.103 328.151 473.391 326.81C474.65 321.493 473.818 315.188 472.632 310.215Z" fill="white" stroke="#18216D" stroke-miterlimit="10"/>
<path d="M478.812 263.23C486.584 267.558 487.801 277.098 488.051 285.568C488.176 289.927 487.926 294.39 486.292 298.427C481.902 309.248 468.605 311.953 458.201 311.609C444.799 311.148 431.573 308.407 419.091 303.505C419.015 301.228 419.274 298.953 419.861 296.752C427.785 298.842 435.94 299.926 444.134 299.978C450.066 300.183 455.989 299.366 461.645 297.564C465.213 296.315 468.73 294.276 470.291 291.103C473.089 285.412 468.418 279.304 467.752 273.634C467.367 271.661 467.457 269.625 468.012 267.693C468.341 266.889 468.76 266.125 469.261 265.414C469.897 264.293 470.775 263.326 471.83 262.585C472.668 262.149 473.596 261.913 474.54 261.897C475.484 261.881 476.42 262.084 477.272 262.491C477.8 262.706 478.314 262.952 478.812 263.23Z" fill="white" stroke="#18216D" stroke-miterlimit="10"/>
<path d="M378.317 310.642H433.075C433.439 310.636 433.797 310.539 434.115 310.361V310.361C435.624 309.497 434.875 307.573 433.075 307.573H378.317C377.952 307.577 377.594 307.673 377.276 307.854V307.854C375.737 308.707 376.475 310.642 378.317 310.642Z" fill="#18216D"/>
<path d="M377.943 310.777H429.902C430.046 310.776 430.187 310.735 430.311 310.659C430.434 310.584 430.535 310.476 430.602 310.348C430.669 310.22 430.7 310.077 430.692 309.932C430.684 309.788 430.638 309.649 430.557 309.529L412.87 283.518C412.797 283.412 412.699 283.325 412.585 283.265C412.47 283.205 412.343 283.174 412.214 283.175H360.224C360.08 283.174 359.938 283.213 359.814 283.287C359.69 283.361 359.589 283.468 359.522 283.595C359.454 283.723 359.423 283.866 359.431 284.011C359.439 284.155 359.487 284.294 359.569 284.413L377.256 310.423C377.331 310.535 377.434 310.627 377.554 310.689C377.674 310.75 377.808 310.781 377.943 310.777V310.777Z" fill="#18216D"/>
<path d="M447.422 220.312C448.936 219.888 450.543 219.931 452.031 220.437C453.712 221.062 455.163 222.183 456.193 223.652C457.452 225.441 457.598 226.971 457.795 229.124C458.232 234.042 458.676 238.96 459.127 243.878C459.144 244.681 459.332 245.472 459.679 246.198C460.295 247.078 461.207 247.71 462.248 247.977C463.135 248.305 464.08 248.446 465.024 248.391C465.968 248.335 466.89 248.084 467.731 247.654C468.52 247.127 469.187 246.438 469.688 245.632C470.188 244.827 470.511 243.923 470.634 242.983C470.868 241.1 470.826 239.193 470.509 237.323C469.812 231.382 469.469 225.941 467.014 220.385C465.047 215.921 460.147 213.393 455.34 212.592C451.056 211.891 446.665 212.285 442.574 213.736C441.215 214.132 439.985 214.879 439.005 215.9C437.538 217.628 437.694 219.615 439.869 220.229C441.339 220.752 442.899 220.978 444.457 220.895C445.456 220.756 446.446 220.561 447.422 220.312Z" fill="#18216D"/>
<path d="M455.184 226.815C455.359 226.444 455.607 226.112 455.913 225.839C456.219 225.566 456.576 225.357 456.965 225.225C457.353 225.093 457.764 225.041 458.173 225.071C458.582 225.101 458.98 225.212 459.345 225.4C461 226.44 460.708 228.791 459.345 229.946C459.044 230.226 458.68 230.428 458.283 230.535C457.887 230.643 457.47 230.653 457.069 230.564C456.668 230.475 456.294 230.289 455.98 230.024C455.666 229.759 455.422 229.422 455.267 229.041C455.168 228.725 455.14 228.391 455.184 228.063C455.06 227.878 454.994 227.661 454.994 227.439C454.994 227.217 455.06 226.999 455.184 226.815Z" fill="white"/>
<path d="M471.207 278.982L473.111 278.284C473.128 278.215 473.163 278.15 473.212 278.097C473.261 278.045 473.323 278.005 473.391 277.983C478.167 276.214 482.839 274.185 487.583 272.344C486.356 269.007 484.849 265.781 483.078 262.699C481.745 259.951 479.926 257.466 477.709 255.364C475.055 252.866 472.081 250.732 468.866 249.017C468.054 248.601 458.846 244.772 458.784 244.939C458.061 247.366 457.553 249.852 457.265 252.367C457.194 254.001 457.038 255.63 456.797 257.247C456.065 259.873 456.339 262.678 457.567 265.113C459.439 268.473 461.239 271.927 463.278 275.174L466.629 280.501C467.885 279.955 469.183 279.509 470.509 279.169L471.207 278.982Z" fill="#005FEC"/>
<path d="M444.53 232.735C445.056 233.195 445.73 233.448 446.429 233.448C447.127 233.448 447.802 233.195 448.328 232.735C448.556 232.516 448.504 232.152 448.536 231.84C448.567 231.528 448.338 231.184 448.026 231.205C447.931 231.212 447.838 231.241 447.755 231.288C446.798 231.694 445.477 232.308 444.53 232.735Z" fill="#18216D"/>
<path d="M395.14 294.109C394.828 293.913 394.479 293.781 394.115 293.719C393.751 293.658 393.378 293.669 393.018 293.752C392.659 293.834 392.318 293.987 392.018 294.201C391.717 294.415 391.461 294.686 391.265 294.999C391.069 295.312 390.936 295.66 390.875 296.024C390.813 296.389 390.824 296.761 390.907 297.121C390.99 297.481 391.142 297.821 391.356 298.122C391.57 298.423 391.842 298.679 392.154 298.875" stroke="#C9CDD1" stroke-miterlimit="10"/>
<path d="M414.597 351.947C413.203 347.983 412.329 343.769 411.101 339.732C410.607 337.888 409.828 336.133 408.791 334.53C407.738 332.903 406.099 331.744 404.213 331.294C400.988 330.681 397.773 332.98 396.296 335.914C392.446 343.519 395.734 351.957 400.718 358.065C402.413 360.145 404.245 362.091 405.993 364.12C407.74 366.149 409.01 368.864 410.799 370.789C413.567 373.754 418.363 371.829 420.631 369.145C423.336 365.941 419.851 361.602 417.999 358.907C416.565 356.746 415.421 354.406 414.597 351.947V351.947Z" fill="#005FEC"/>
<path d="M419.705 363.256L419.195 363.61C416.507 365.431 413.698 367.068 410.789 368.51C410.086 368.835 409.472 369.324 408.999 369.936C408.25 371.06 409.061 371.871 409.218 372.984C409.663 376.41 409.361 379.892 408.333 383.191C407.293 386.312 403.422 390.692 404.4 394.178C405.035 396.477 408.271 396.134 410.071 395.634C412.692 394.791 414.902 392.994 416.261 390.599C417.655 388.299 418.665 385.771 419.892 383.378C421.03 381.162 422.364 379.052 423.877 377.073C424.643 376.176 425.3 375.191 425.833 374.139C426.282 373.008 426.406 371.774 426.193 370.576C425.98 369.378 425.437 368.263 424.626 367.356C423.773 366.378 423.149 365.212 422.327 364.234C421.214 362.84 420.85 362.518 419.705 363.256Z" fill="#18216D"/>
<path d="M382.291 335.55C382.728 336.694 382.947 337.891 383.332 339.056C384.056 341.086 385.009 343.026 386.172 344.841C388.836 349.398 391.506 353.951 394.183 358.502L398.189 365.327C398.366 365.628 398.668 366.263 399.032 367.012C406.273 362.774 413.352 358.266 420.267 353.487C418.706 350.938 416.938 348.482 416.573 345.548C416.386 344.071 416.573 342.552 416.407 341.064C415.97 337.474 413.4 334.592 411.257 331.7C407.428 326.498 404.702 320.557 401.446 314.949C401.061 314.283 400.665 313.628 400.26 312.972C398.058 309.234 395.297 305.855 392.071 302.953C390.427 301.598 388.658 300.403 386.786 299.384C385.215 298.479 384.06 297.179 382.364 296.482C374.998 293.454 369.192 299.405 368.963 306.886C368.807 312.182 371.18 317.217 373.801 321.816C375.598 324.993 377.54 328.072 379.628 331.055C380.694 332.44 381.589 333.949 382.291 335.55Z" fill="white" stroke="#18216D" stroke-miterlimit="10"/>
<path d="M463.153 270.013C463.604 276.174 462.963 282.366 461.26 288.304C461.582 287.191 464.693 285.245 465.588 284.361C466.483 283.476 469.042 281.51 469.198 280.012C469.354 278.513 467.523 276.464 466.826 275.33C465.699 273.492 464.473 271.718 463.153 270.013Z" fill="#18216D"/>
<path d="M459.012 240.007C459.127 244.023 459.449 249.08 455.257 251.202C453.788 251.93 452.105 252.097 450.523 251.67" fill="white"/>
<path d="M459.012 240.007C459.127 244.023 459.449 249.08 455.257 251.202C453.788 251.93 452.105 252.097 450.523 251.67" stroke="#18216D" stroke-miterlimit="10"/>
<path d="M454.039 342.063C463.216 340.575 472.049 346.141 481.319 346.859Z" fill="white"/>
<path d="M454.039 342.063C463.216 340.575 472.049 346.141 481.319 346.859" stroke="#18216D" stroke-miterlimit="10"/>
<path d="M475.878 339.181C480.678 340.491 485.707 340.732 490.61 339.888Z" fill="white"/>
<path d="M475.878 339.181C480.678 340.491 485.707 340.732 490.61 339.888" stroke="#18216D" stroke-miterlimit="10"/>
<path d="M494.325 307.375C495.299 315.487 493.058 323.658 488.082 330.139" stroke="#18216D" stroke-miterlimit="10"/>
<path d="M358.559 370.602C358.226 368.282 357.956 362.278 355.126 361.404C348.55 359.375 352.691 375.315 353.274 377.375C353.322 377.564 353.407 377.742 353.525 377.897C353.643 378.053 353.791 378.183 353.961 378.28C354.195 378.868 354.55 379.401 355.001 379.845C355.452 380.289 355.991 380.635 356.582 380.86C356.849 380.934 357.13 380.936 357.397 380.864C357.664 380.793 357.907 380.651 358.101 380.455C358.276 380.282 358.43 380.09 358.559 379.882C358.734 379.747 358.873 379.572 358.964 379.37C359.055 379.169 359.095 378.948 359.079 378.727C359.085 378.7 359.085 378.672 359.079 378.644C359.704 376.178 358.851 372.62 358.559 370.602Z" fill="#18216D"/>
<path d="M343.681 355.952C341.465 356.077 339.155 358.699 337.699 360.114C335.512 362.274 333.579 364.676 331.935 367.272C331.818 367.441 331.74 367.632 331.704 367.834C331.669 368.035 331.678 368.242 331.73 368.44C331.783 368.638 331.878 368.822 332.008 368.979C332.138 369.137 332.302 369.265 332.486 369.353C333.027 371.007 335.004 371.268 336.648 370.872C339.174 370.156 341.393 368.628 342.963 366.523C344.409 364.702 346.209 362.289 346.563 359.937C346.844 358.065 345.845 355.828 343.681 355.952Z" fill="#18216D"/>
<path d="M362.586 343.863C358.757 344.112 351.619 344.154 349.424 348.024C349.217 348.365 349.08 348.744 349.02 349.139C348.96 349.533 348.979 349.935 349.076 350.322C349.173 350.709 349.345 351.073 349.584 351.393C349.822 351.713 350.121 351.983 350.465 352.186C352.545 353.643 355.24 353.029 357.487 352.405C357.818 352.323 358.109 352.128 358.309 351.853C360.056 351.465 361.736 350.82 363.293 349.939C364.781 349.106 366.726 347.858 366.508 345.954C366.289 344.05 364.188 343.759 362.586 343.863Z" fill="#18216D"/>
<path d="M364.916 330.597C363.688 327.257 360.942 324.511 358.112 322.492C357.947 322.362 357.755 322.273 357.55 322.231C357.344 322.189 357.132 322.195 356.93 322.25C356.728 322.304 356.541 322.406 356.385 322.545C356.229 322.685 356.107 322.859 356.031 323.054C355.463 322.902 354.865 322.913 354.303 323.086C353.742 323.259 353.241 323.587 352.857 324.032C350.839 326.238 351.9 330.275 353.294 332.532C354.824 334.988 358.819 337.735 361.826 337.318C365.093 336.861 365.894 333.25 364.916 330.597Z" fill="#18216D"/>
<path d="M338.531 343.696C338.224 343.591 337.891 343.591 337.584 343.696C337.253 343.625 336.909 343.63 336.58 343.711C336.251 343.793 335.944 343.948 335.684 344.166C335.424 344.384 335.218 344.658 335.08 344.968C334.942 345.278 334.877 345.615 334.889 345.954C334.889 347.879 336.304 349.897 337.688 351.156C339.291 352.587 341.312 353.462 343.452 353.653C343.865 353.65 344.26 353.485 344.553 353.193C344.845 352.901 345.01 352.506 345.013 352.092C344.97 350.184 344.318 348.34 343.152 346.829C341.986 345.318 340.366 344.22 338.531 343.696V343.696Z" fill="#18216D"/>
<path d="M382.073 340.523C381.428 339.482 381.116 338.328 380.065 337.683C379.481 337.344 378.805 337.196 378.133 337.262C377.461 337.327 376.827 337.602 376.319 338.047C374.041 339.732 372.761 343.02 372.376 345.735C372.064 347.962 371.96 351.666 374.738 352.342C376.767 352.831 378.036 351.354 378.899 349.668C379.609 348.773 380.175 347.773 380.574 346.703C381.109 345.373 381.439 343.97 381.552 342.541C381.729 342.453 381.884 342.327 382.008 342.174C382.132 342.02 382.222 341.841 382.271 341.65C382.32 341.459 382.328 341.26 382.294 341.065C382.26 340.871 382.184 340.686 382.073 340.523Z" fill="#18216D"/>
<path d="M438.121 333.115C436.04 330.618 432.658 333.625 430.942 335.04C429.534 336.215 428.239 337.517 427.071 338.931C426.312 339.857 424.907 341.158 425.074 342.469C425.074 342.593 425.126 342.718 425.157 342.843C425.071 343.149 425.012 343.463 424.98 343.779C424.985 344.192 425.152 344.586 425.443 344.877C425.735 345.169 426.129 345.335 426.541 345.34C429.735 345.34 432.783 342.552 434.947 340.45C436.55 338.889 440.139 335.57 438.121 333.115Z" fill="#18216D"/>
<path d="M425.573 320.172C423.555 318.518 420.652 317.124 417.978 317.519C414.857 317.977 414.014 320.588 415.231 323.273C415.477 323.804 415.77 324.312 416.105 324.792C416.134 324.856 416.158 324.922 416.178 324.989C416.721 326.322 417.569 327.509 418.653 328.455C419.737 329.402 421.027 330.082 422.421 330.441C424.501 330.972 429.506 330.972 429.974 328.069C430.442 325.166 427.654 321.785 425.573 320.172Z" fill="#18216D"/>
<path d="M454.029 316.614C452.811 313.597 448.691 313.139 445.976 313.43C443.614 313.69 439.14 314.044 437.434 316.198C436.165 317.238 435.207 318.778 436.258 320.307C437.58 322.222 441.544 322.305 443.593 322.388C445.706 322.493 447.811 322.049 449.701 321.098C451.958 320.547 455.069 319.184 454.029 316.614Z" fill="#18216D"/>
<path d="M455.246 330.056C453.082 327.642 448.858 327.226 447.297 330.535C446.371 332.512 446.871 334.696 447.838 336.777C448.237 338.477 449.149 340.014 450.45 341.178L450.897 341.844C451.042 342.058 451.235 342.234 451.461 342.358C451.687 342.482 451.94 342.551 452.197 342.56C452.455 342.568 452.711 342.515 452.945 342.405C453.178 342.295 453.382 342.131 453.54 341.927C454.433 341.86 455.296 341.575 456.052 341.096C456.809 340.617 457.436 339.959 457.879 339.181C459.138 336.59 457.025 332.033 455.246 330.056Z" fill="#18216D"/>
<path d="M476.991 322.596C477.027 322.425 477.026 322.249 476.988 322.078C476.95 321.908 476.876 321.747 476.77 321.608C476.664 321.469 476.53 321.354 476.376 321.272C476.222 321.189 476.052 321.14 475.878 321.129C472.091 320.609 467.96 319.995 464.35 321.618C462.498 322.451 460.188 324.677 461.312 326.956C462.737 329.692 468.075 329.963 470.676 330.077C473.454 330.16 477.23 329.463 478.687 326.758C479.759 324.792 478.802 323.449 476.991 322.596Z" fill="#18216D"/>
<path d="M414.992 332.938C414.639 331.232 413.182 330.68 411.611 330.691C411.47 330.364 411.215 330.1 410.893 329.949C410.571 329.797 410.204 329.769 409.863 329.869C406.559 330.654 403.622 332.545 401.54 335.227C400.104 337.09 398.137 340.242 400.666 342.094C403.194 343.946 407.272 341.334 409.416 339.795C411.257 338.484 415.544 335.55 414.992 332.938Z" fill="#18216D"/>
<path d="M403.891 351.427C398.449 352.082 394.121 358.46 391.135 362.434C390.95 362.652 390.849 362.929 390.849 363.215C390.849 363.5 390.95 363.777 391.135 363.995C390.998 364.345 390.933 364.718 390.944 365.094C390.955 365.469 391.041 365.839 391.197 366.18C393.393 370.831 401.31 362.871 403.038 360.978C404.546 359.355 407.002 356.816 407.345 354.558C407.688 352.301 405.868 351.187 403.891 351.427Z" fill="#18216D"/>
<path d="M393.174 331.898C393.105 331.671 392.985 331.462 392.825 331.286C392.664 331.111 392.467 330.974 392.247 330.884C392.027 330.794 391.79 330.755 391.552 330.768C391.315 330.782 391.084 330.848 390.875 330.961C385.767 334.156 385.257 342.292 385.569 347.681C385.578 348.002 385.689 348.312 385.885 348.566C386.081 348.821 386.353 349.006 386.661 349.096C386.819 349.683 387.177 350.196 387.673 350.547C388.168 350.898 388.771 351.066 389.377 351.021C392.498 350.938 393.705 346.079 394.194 343.738C395.028 339.777 394.673 335.658 393.174 331.898V331.898Z" fill="#18216D"/>
<path d="M406.148 312.577C406.079 312.258 405.894 311.975 405.629 311.783C405.364 311.591 405.038 311.503 404.713 311.537H404.525C401.675 310.296 398.514 309.951 395.463 310.548C391.895 310.548 387.525 311.953 387.66 315.917C387.827 320.848 397.7 319.038 400.593 318.476C403.006 318.081 409.623 315.386 406.148 312.577Z" fill="#18216D"/>
<path d="M382.666 319.329C382.312 319.454 381.959 319.61 381.626 319.746C380.841 319.958 380.101 320.311 379.441 320.786C378.24 321.406 377.097 322.134 376.028 322.96C374.291 324.323 371.762 326.352 371.045 328.537C370.41 330.42 371.939 331.898 373.77 331.898C375.851 331.898 378.047 330.514 379.607 329.297C380.887 328.256 385.049 323.866 384.539 321.337C384.747 320.224 383.956 318.861 382.666 319.329Z" fill="#18216D"/>
<path d="M382.323 302.194C381.698 299.218 379.482 299.946 377.433 300.321C377.18 300.336 376.926 300.336 376.673 300.321C374.592 300.466 372.751 303.442 371.835 305.148C370.67 307.229 369.754 310.007 371.013 312.275C373.614 317.009 379.097 310.964 380.575 308.436C381.605 306.719 382.76 304.274 382.323 302.194Z" fill="#18216D"/>
<path d="M557.478 60.8766H366.04V176.364H557.478V60.8766Z" fill="white" stroke="#18216D" stroke-miterlimit="10"/>
<path d="M380.44 171.141C379.482 165.003 380.648 158.323 384.601 153.527C386.464 151.279 388.909 149.438 390.084 146.774C390.622 145.41 390.945 143.971 391.042 142.509C391.832 134.466 390.469 125.685 394.787 118.849C396.525 116.092 399.063 113.928 401.03 111.306C404.577 106.468 405.888 100.34 409.062 95.2628C412.235 90.1855 418.8 86.1174 424.096 88.9266C429.392 91.7357 429.766 98.9667 428.154 104.595C426.541 110.224 423.492 115.697 424.023 121.523C424.502 126.611 427.696 131.137 428.268 136.224C428.903 141.832 426.291 147.326 426.187 152.965C426 160.123 429.756 167.052 428.913 174.158C428.07 181.265 422.816 186.997 416.49 190.025C409.852 193.209 395.193 196.413 388.711 191.211C384.102 187.549 381.261 176.458 380.44 171.141Z" fill="#005FEC"/>
<path d="M474.078 177.384C473.121 171.245 474.286 164.566 478.24 159.769C481.507 155.816 484.326 154.422 484.17 149.178C483.983 142.54 481.757 136.609 482.797 129.784C484.181 120.712 489.414 112.638 491.297 103.659C492.806 96.376 492.338 88.2295 496.968 82.4759C498.318 80.6361 500.32 79.3818 502.565 78.9697C508.152 78.2101 512.095 84.7024 512.366 90.3415C512.637 95.9807 510.93 101.786 512.532 107.176C514.249 112.981 519.524 117.32 520.793 123.24C521.532 126.725 520.793 130.377 521.272 133.904C521.678 136.922 522.968 139.731 523.998 142.592C529.908 158.999 528.004 187.705 510.119 196.268C503.481 199.451 488.821 202.656 482.339 197.454C477.741 193.791 474.9 182.7 474.078 177.384Z" fill="#005FEC"/>
<path d="M499.579 186.789V186.727C499.69 180.05 501.267 173.479 504.198 167.479C509.057 157.564 517.578 149.219 519.607 138.347C520.585 133.145 519.93 127.714 520.138 122.387C520.346 117.06 521.626 111.379 525.558 107.821C527.389 106.156 530.199 105.043 532.331 106.312C533.493 107.134 534.352 108.315 534.777 109.673C536.857 115.073 536.764 121.055 537.534 126.809C538.751 135.892 545.555 140.49 546.596 149.282C547.771 159.301 546.315 169.425 543.391 179.028C540.208 189.494 537.648 200.419 526.744 205.652C517.464 210.105 508.35 211.479 502.711 201.241C500.438 196.774 499.359 191.796 499.579 186.789V186.789Z" fill="#005FEC"/>
<path d="M410.945 174.127C410.799 171.693 412.152 169.445 413.556 167.469C418.873 159.988 425.594 153.589 430.463 145.796C433.158 141.489 436.217 137.4 437.278 132.271C437.689 129.785 437.877 127.268 437.84 124.749C437.815 119.688 438.516 114.649 439.921 109.787C442.251 102.504 447.339 95.9911 454.227 92.6825C465.671 87.1995 483.359 87.678 489.601 100.808C492.046 105.938 492.525 111.878 492.556 117.455C492.556 124.218 491.817 131.033 492.712 137.743C493.753 145.287 498.018 149.927 503.533 154.775C507.33 158.115 510.233 161.288 510.888 166.386C511.513 171.245 509.255 176.073 506.03 179.589C501.462 184.573 495.084 187.611 488.53 189.265C481.975 190.92 475.171 191.294 468.429 191.7C460.719 192.168 452.968 192.678 445.3 191.815C437.632 190.951 429.953 188.6 423.846 183.886C421.588 182.149 419.476 180.037 416.855 178.851C414.233 177.665 411.163 177.914 410.945 174.127Z" fill="#18216D"/>
<path d="M466.494 182.804C463.358 183.215 460.198 183.403 457.036 183.366C455.184 183.366 452.396 183.481 450.887 182.232C449.378 180.984 449.306 178.872 449.264 177.228C449.108 171.339 450.304 165.523 450.908 159.665C451.366 154.952 451.407 150.041 449.961 145.484C448.64 141.323 446.642 137.671 445.987 133.218C445.831 132.177 445.987 129.701 445.29 128.837C444.593 127.974 443.406 128.161 442.73 127.287C442.071 126.355 441.762 125.22 441.856 124.083C441.948 122.81 442.383 121.586 443.116 120.541C443.849 119.497 444.852 118.671 446.018 118.152C446.062 118.14 446.1 118.112 446.125 118.074C446.15 118.035 446.16 117.989 446.153 117.944C445.456 110.661 448.536 102.972 454.997 99.4245C461.635 95.7934 469.271 93.0883 476.274 97.7598C479.671 100.118 482.113 103.612 483.161 107.613C483.515 108.83 484.659 120.181 484.732 120.732C485.293 120.652 485.864 120.736 486.378 120.975C486.891 121.213 487.324 121.595 487.625 122.075C488.213 123.044 488.523 124.156 488.519 125.29C488.597 126.442 488.315 127.59 487.713 128.575C487.112 129.561 486.219 130.336 485.159 130.793C482.558 131.834 483.265 134.549 482.62 137.036C481.826 140.139 480.41 143.048 478.458 145.588C478.001 146.115 477.626 146.708 477.345 147.347C477.127 148.114 477.063 148.917 477.158 149.708C477.609 158.087 477.803 166.473 477.741 174.866C477.741 177.394 477.356 179.475 475.067 180.692C472.393 182.076 469.428 182.399 466.494 182.804Z" fill="white" stroke="#18216D" stroke-miterlimit="10"/>
<path d="M454.341 98.4049C450.925 99.76 448.016 102.146 446.018 105.23C444.143 108.563 443.327 112.388 443.677 116.196C443.791 117.445 444.644 118.881 445.882 118.724C446.86 118.6 447.412 117.57 447.963 116.737C451.49 111.379 459.928 110.235 465.838 109.839C467.336 109.746 468.834 109.714 470.343 109.746C474.39 109.829 478.344 110.921 482.339 111.088C485.46 111.223 488.925 109.007 490.912 106.749C493.084 104.277 494.269 101.092 494.242 97.8014C494.287 96.3521 493.883 94.9241 493.087 93.7126C491.734 91.8606 489.123 91.1427 486.938 91.2675C484.861 91.3789 482.805 91.7494 480.82 92.3704C478.857 93.1796 476.818 93.7896 474.734 94.1911C472.58 94.4512 470.416 94.9715 468.241 95.3044C463.549 95.9807 458.732 96.4801 454.341 98.4049Z" fill="#18216D"/>
<path d="M466.566 142.748C464.745 143.299 463.31 143.788 461.426 143.06C460.917 142.852 460.552 143.716 461.052 143.944C462.873 144.798 465.453 144.985 467.034 143.549C467.11 143.474 467.159 143.377 467.173 143.271C467.187 143.165 467.166 143.058 467.112 142.966C467.058 142.874 466.975 142.803 466.877 142.763C466.778 142.724 466.668 142.718 466.566 142.748V142.748Z" fill="#18216D"/>
<path d="M466.233 130.887H465.786L462.446 131.407C458.513 132.021 461.25 137.057 464.371 136.297C464.958 136.177 465.509 135.924 465.984 135.559C466.552 135.005 466.986 134.329 467.253 133.582C467.469 133.156 467.607 132.694 467.659 132.219C467.685 131.98 467.646 131.738 467.545 131.52C467.444 131.302 467.285 131.115 467.087 130.981C466.819 130.863 466.521 130.83 466.233 130.887V130.887Z" fill="#18216D"/>
<path d="M464.007 127.412C463.227 127.412 464.007 122.813 464.069 122.21C464.213 120.824 464.174 119.424 463.955 118.048C463.955 117.83 463.611 117.892 463.601 118.048C463.466 120.92 462.821 123.718 462.654 126.559C462.592 127.599 462.946 128.64 464.132 128.276C464.214 128.229 464.28 128.159 464.321 128.074C464.363 127.99 464.378 127.894 464.364 127.801C464.351 127.708 464.31 127.621 464.246 127.551C464.182 127.482 464.099 127.433 464.007 127.412V127.412Z" fill="#18216D"/>
<path d="M455.132 121.825C455.088 121.676 454.997 121.546 454.874 121.452C454.75 121.359 454.6 121.307 454.445 121.305H454.372C454.229 121.305 454.089 121.342 453.965 121.414C453.841 121.485 453.737 121.587 453.665 121.71C453.665 121.71 453.665 121.71 453.665 121.762C453.557 121.891 453.491 122.05 453.476 122.218C453.461 122.385 453.498 122.553 453.582 122.699L453.644 122.782C454.081 123.386 455.246 123.271 455.194 122.366C455.195 122.184 455.174 122.002 455.132 121.825Z" fill="#18216D"/>
<path d="M473.818 120.868C473.121 120.223 472.07 121.273 472.778 121.908C472.799 122.018 472.837 122.123 472.892 122.22C472.953 122.324 473.039 122.41 473.143 122.47C473.247 122.529 473.365 122.561 473.485 122.561C473.605 122.561 473.723 122.529 473.827 122.47C473.931 122.41 474.018 122.324 474.078 122.22C474.189 121.998 474.224 121.744 474.177 121.5C474.13 121.256 474.004 121.033 473.818 120.868Z" fill="#18216D"/>
<path d="M468.616 152.185C471.25 153.747 473.993 155.117 476.825 156.284C477.066 156.387 477.328 156.429 477.588 156.409C477.849 156.388 478.101 156.305 478.323 156.166C478.545 156.027 478.73 155.837 478.862 155.611C478.994 155.385 479.07 155.13 479.083 154.869C479.168 152.25 479.534 149.648 480.175 147.107C480.529 145.796 481.694 144.725 481.694 143.372C481.702 143.184 481.659 142.997 481.569 142.831C481.433 142.644 481.235 142.511 481.009 142.458C480.784 142.404 480.547 142.433 480.341 142.54C479.929 142.756 479.572 143.066 479.301 143.445C476.419 146.878 473.329 148.189 469.084 149.188C468.766 149.261 468.477 149.428 468.255 149.667C468.032 149.906 467.886 150.206 467.836 150.528C467.786 150.85 467.833 151.181 467.972 151.476C468.111 151.771 468.335 152.018 468.616 152.185Z" fill="#18216D"/>
<path d="M557.478 60.8766H366.04V176.364H557.478V60.8766Z" stroke="#18216D" stroke-miterlimit="10"/>
<path d="M371.814 53.8745H551.725C553.381 53.8745 554.969 54.5322 556.139 55.7029C557.31 56.8737 557.968 58.4615 557.968 60.1171V67.9411H365.488V60.1171C365.488 59.2903 365.653 58.4717 365.971 57.7088C366.29 56.9459 366.758 56.254 367.346 55.6732C367.935 55.0925 368.633 54.6344 369.4 54.3256C370.167 54.0168 370.987 53.8635 371.814 53.8745V53.8745Z" fill="#18216D"/>
<path d="M374.363 65.4857C376.489 65.4857 378.213 63.7621 378.213 61.6361C378.213 59.51 376.489 57.7865 374.363 57.7865C372.237 57.7865 370.514 59.51 370.514 61.6361C370.514 63.7621 372.237 65.4857 374.363 65.4857Z" fill="white"/>
<path d="M392.394 61.4592C392.426 62.2176 392.233 62.9684 391.838 63.6169C391.444 64.2654 390.866 64.7824 390.178 65.1027C389.49 65.4229 388.722 65.532 387.972 65.4161C387.222 65.3003 386.523 64.9647 385.964 64.4517C385.404 63.9388 385.009 63.2715 384.829 62.5342C384.649 61.797 384.691 61.0228 384.95 60.3095C385.21 59.5962 385.675 58.9758 386.287 58.5268C386.899 58.0777 387.63 57.8201 388.388 57.7865C389.406 57.7442 390.399 58.107 391.15 58.7954C391.901 59.4838 392.348 60.4417 392.394 61.4592V61.4592Z" fill="white"/>
<path d="M392.394 61.4592C392.426 62.2176 392.233 62.9684 391.838 63.6169C391.444 64.2654 390.866 64.7824 390.178 65.1027C389.49 65.4229 388.722 65.532 387.972 65.4161C387.222 65.3003 386.523 64.9646 385.963 64.4517C385.404 63.9387 385.009 63.2715 384.829 62.5342C384.648 61.7969 384.691 61.0228 384.95 60.3095C385.21 59.5962 385.675 58.9758 386.287 58.5268C386.899 58.0777 387.63 57.8201 388.388 57.7865C389.406 57.7442 390.399 58.1069 391.15 58.7953C391.901 59.4837 392.348 60.4416 392.394 61.4592V61.4592Z" fill="white"/>
<path d="M384.08 56.9542L393.028 66.318" stroke="#18216D" stroke-miterlimit="10"/>
<path d="M383.873 66.1094L393.237 57.1514" stroke="#18216D" stroke-miterlimit="10"/>
<path d="M335.867 20.8201H195.409V136.308H335.867V20.8201Z" fill="white" stroke="#18216D" stroke-miterlimit="10"/>
<path d="M210.485 62.8846C210.154 60.8334 210.288 58.7339 210.879 56.7418C211.47 54.7497 212.502 52.9163 213.898 51.3775C214.938 50.3371 215.979 49.64 216.634 48.2562C216.876 47.6122 217.041 46.9416 217.123 46.2586C217.558 44.2275 218.414 42.3102 219.636 40.6308C220.859 38.9515 222.42 37.5475 224.219 36.5098C228.131 34.0336 232.033 33.9815 236.507 33.2324C237.828 33.0139 239.097 32.5978 240.408 32.3793C241.658 32.1834 242.929 32.1589 244.185 32.3065C247.855 32.8141 251.299 34.3754 254.1 36.8011C255.93 38.3869 257.436 40.3125 258.532 42.4714C259.573 44.1569 259.979 46.0817 260.936 47.7776C262.039 49.7128 263.35 49.6504 265.212 50.5452C266.891 51.3588 268.356 52.5558 269.487 54.0396C270.618 55.5234 271.385 57.2524 271.725 59.0871C273.213 68.1388 263.932 74.6935 255.682 72.8207C249.439 71.4266 240.075 71.4682 235.31 76.327C233.323 78.3246 231.648 80.676 229.328 82.2782C229.088 82.4343 228.849 82.5904 228.599 82.736C226.457 83.973 224.041 84.6561 221.568 84.7233C219.095 84.7905 216.645 84.2398 214.439 83.121C208.602 79.8956 209.06 73.1537 210.933 67.5978C211.147 67.0969 211.267 66.5608 211.287 66.0163C211.234 65.5486 211.119 65.0901 210.943 64.6534C210.745 64.0766 210.592 63.4852 210.485 62.8846V62.8846Z" fill="#005FEC"/>
<path d="M238.66 98.1656C240.98 102.723 245.943 104.98 251.406 104.242H251.53C252.913 104.019 254.237 103.519 255.421 102.772C256.606 102.025 257.628 101.047 258.426 99.8954C259.223 98.7441 259.78 97.4436 260.063 96.0719C260.346 94.7002 260.349 93.2855 260.072 91.9126L258.231 82.4655C257.901 81.2302 257.844 79.9378 258.064 78.6783C258.456 77.5765 258.984 76.5279 259.635 75.557C263.797 68.0139 259.074 59.4408 255.224 52.8965C253.688 50.2459 251.514 48.0216 248.899 46.4261C246.284 44.8306 243.312 43.9146 240.252 43.7615C226.799 43.2101 220.172 55.4247 222.783 67.3897C224.282 74.1941 228.371 79.0737 233.583 83.4019C238.796 87.7301 239.087 91.6837 238.66 98.1656Z" fill="white" stroke="#18216D" stroke-miterlimit="10"/>
<path d="M226.04 55.5912C225.808 56.6153 225.766 57.6732 225.915 58.7125C226.212 61.2268 225.79 63.7738 224.698 66.0579C224.078 67.1239 223.295 68.0859 222.378 68.9087C221.64 69.6761 220.746 70.2758 219.756 70.667C219.26 70.8539 218.726 70.9174 218.201 70.8521C217.675 70.7869 217.173 70.5948 216.738 70.2925C216.325 69.9191 216.008 69.4522 215.812 68.9308C215.617 68.4095 215.549 67.8489 215.615 67.296C215.745 66.1951 215.989 65.1107 216.343 64.0603C216.863 62.0939 217.071 60.0547 217.623 58.0987C218.074 56.0953 219.193 54.3048 220.796 53.0214C221.408 52.5771 222.113 52.2779 222.857 52.1463C223.602 52.0147 224.366 52.0542 225.093 52.2619C225.613 52.4387 226.716 52.9069 226.903 53.4896C227.164 54.3219 226.3 54.7589 226.04 55.5912Z" fill="#005FEC"/>
<path d="M229.671 54.634C231.009 54.2803 232.304 53.7778 233.531 53.1358C233.82 52.9536 234.148 52.843 234.488 52.8133C234.782 52.8329 235.067 52.922 235.32 53.0734C237.204 54.1356 239.267 54.841 241.407 55.1542C243.561 55.2895 245.964 54.2803 246.692 52.2514C246.796 51.9705 246.921 51.6168 247.223 51.5752C247.33 51.576 247.435 51.5996 247.532 51.6445C247.629 51.6893 247.715 51.7544 247.785 51.8353C250.23 53.9161 252.727 57.4848 256.441 55.8201C258.418 54.9358 259.438 52.6988 259.562 50.4931C259.791 45.7072 256.254 41.327 251.894 39.3293C247.535 37.3317 242.531 37.3525 237.776 37.9664C234.41 38.3125 231.123 39.2088 228.048 40.6195C224.75 42.2425 223.543 44.7812 221.743 47.9025C221.262 48.5927 220.947 49.3846 220.822 50.2166C220.698 51.0486 220.767 51.8981 221.025 52.6988C222.065 54.967 225.051 55.4456 227.507 55.0918C228.237 54.9856 228.96 54.8327 229.671 54.634V54.634Z" fill="#005FEC"/>
<path d="M250.198 82.4759C249.811 82.6647 249.411 82.828 249.002 82.9649C248.492 83.1418 246.266 83.1834 246.058 83.4851C245.413 84.4319 247.753 84.6504 248.138 84.7128C249.134 84.8567 250.11 85.1078 251.052 85.462C251.773 85.7828 252.469 86.1585 253.132 86.5856L255.702 88.0942C255.123 85.217 254.775 82.2979 254.662 79.365C254.662 79.7812 252.519 81.0713 252.165 81.3106C251.537 81.7443 250.88 82.1337 250.198 82.4759V82.4759Z" fill="#18216D"/>
<path d="M232.855 63.8002C232.671 63.7488 232.477 63.7488 232.294 63.8002C232.11 63.8516 231.944 63.9523 231.814 64.0915C231.752 64.1586 231.705 64.2388 231.677 64.3263C231.65 64.4139 231.642 64.5064 231.655 64.5973C231.668 64.6881 231.701 64.7749 231.752 64.8512C231.803 64.9275 231.871 64.9914 231.95 65.0383C232.011 65.1135 232.086 65.1754 232.172 65.2202C232.258 65.2649 232.352 65.2915 232.449 65.2984C232.576 65.3052 232.702 65.2844 232.82 65.2374C232.937 65.1904 233.044 65.1184 233.131 65.0264C233.218 64.9343 233.284 64.8244 233.324 64.7043C233.365 64.5842 233.378 64.4568 233.365 64.3308C233.348 64.1991 233.29 64.0763 233.198 63.9806C233.106 63.885 232.986 63.8217 232.855 63.8002V63.8002Z" fill="#18216D"/>
<path d="M249.855 61.2719C249.737 61.0951 249.56 60.966 249.356 60.9078C249.332 60.861 249.296 60.8208 249.253 60.7908C249.209 60.7608 249.159 60.7419 249.107 60.7357C249.055 60.7296 249.002 60.7364 248.952 60.7555C248.903 60.7746 248.86 60.8054 248.825 60.8454C248.44 61.2303 248.357 61.3344 248.471 61.8858C248.493 61.978 248.539 62.0625 248.605 62.1304C248.671 62.1982 248.754 62.2467 248.846 62.2707C249.041 62.3322 249.251 62.3243 249.44 62.2485C249.63 62.1726 249.788 62.0334 249.886 61.8546C249.937 61.7646 249.962 61.662 249.956 61.5587C249.95 61.4554 249.915 61.3559 249.855 61.2719V61.2719Z" fill="#18216D"/>
<path d="M243.883 66.1204C243.581 64.9759 242.78 63.8002 242.635 62.6454C242.635 62.5626 242.602 62.4832 242.543 62.4247C242.485 62.3661 242.405 62.3332 242.322 62.3332C242.24 62.3332 242.16 62.3661 242.102 62.4247C242.043 62.4832 242.01 62.5626 242.01 62.6454C242.042 63.6285 242.239 64.5992 242.593 65.5169C242.884 66.6302 242.895 67.8059 243.238 68.8879C243.373 69.3145 244.112 69.4081 244.195 68.8879C244.284 67.9538 244.178 67.0113 243.883 66.1204V66.1204Z" fill="#18216D"/>
<path d="M251.197 59.9506C250.46 59.4282 249.564 59.1778 248.663 59.2424C247.762 59.3069 246.911 59.6822 246.255 60.3044C246.211 60.3593 246.187 60.4274 246.187 60.4978C246.186 60.5682 246.21 60.6367 246.253 60.6921C246.296 60.7475 246.357 60.7866 246.426 60.8031C246.494 60.8196 246.566 60.8125 246.63 60.783C247.27 60.3885 247.974 60.1103 248.711 59.961C249.47 59.9483 250.226 60.0789 250.937 60.346C250.989 60.37 251.048 60.3745 251.103 60.3588C251.158 60.3431 251.206 60.3081 251.237 60.2602C251.269 60.2124 251.282 60.1548 251.275 60.098C251.267 60.0412 251.24 59.9889 251.197 59.9506Z" fill="#18216D"/>
<path d="M232.626 61.969C231.489 61.8903 230.367 62.2643 229.505 63.0094C229.45 63.0723 229.417 63.1508 229.409 63.2337C229.402 63.3167 229.421 63.3998 229.464 63.4713C229.506 63.5428 229.57 63.599 229.647 63.6319C229.723 63.6648 229.808 63.6727 229.89 63.6545C231.148 63.3216 233.094 62.1771 234.343 63.2175C234.38 63.2521 234.428 63.2737 234.478 63.2792C234.529 63.2848 234.58 63.274 234.624 63.2485C234.669 63.2229 234.703 63.1839 234.724 63.1372C234.744 63.0904 234.749 63.0384 234.738 62.9886C234.519 62.0835 233.385 61.9898 232.626 61.969Z" fill="#18216D"/>
<path d="M243.248 75.5466C243.197 75.2421 243.264 74.9293 243.436 74.6727C243.656 74.2381 243.902 73.8176 244.174 73.4138C244.535 72.7949 245.076 72.3011 245.725 71.9988C246.052 71.8576 246.418 71.8366 246.759 71.9394C247.099 72.0423 247.393 72.2623 247.587 72.5606C247.699 72.8794 247.728 73.2212 247.671 73.5542C247.615 73.8871 247.475 74.2004 247.265 74.4646C246.755 75.2657 243.831 77.4402 243.248 75.5466Z" fill="#18216D"/>
<path d="M256.098 51.211C254.547 51.1703 253.034 50.7256 251.707 49.9209C250.875 49.3174 248.711 47.4238 248.877 46.2898C248.929 45.9568 248.472 45.6863 248.284 46.0401C247.525 47.4759 249.398 49.4111 250.365 50.3579C251.926 51.9289 253.996 52.3659 256.119 52.6468C257.024 52.7612 257.024 51.2838 256.098 51.211Z" fill="white"/>
<path d="M239.94 49.9417C238.939 49.7761 237.979 49.4231 237.11 48.9012C236.35 48.3914 234.426 46.914 235.227 45.9048C235.435 45.6447 235.091 45.2702 234.852 45.5303C233.812 46.6643 234.967 48.0897 235.82 48.9533C236.86 49.9937 238.525 51.1694 239.981 50.4931C240.024 50.4593 240.058 50.4155 240.08 50.3655C240.102 50.3155 240.112 50.2608 240.108 50.2063C240.104 50.1518 240.086 50.0991 240.057 50.053C240.028 50.0068 239.987 49.9686 239.94 49.9417V49.9417Z" fill="white"/>
<path d="M228.932 50.5347C228.17 50.3883 227.398 50.3048 226.622 50.285C226.102 50.1914 223.699 49.5671 224.334 48.6724C224.542 48.3602 224.053 47.9753 223.803 48.2666C222.024 50.3475 227.569 52.1682 229.005 51.107C229.055 51.0736 229.094 51.0271 229.119 50.9726C229.144 50.9181 229.153 50.8578 229.145 50.7984C229.138 50.739 229.114 50.6828 229.076 50.6363C229.039 50.5897 228.989 50.5546 228.932 50.5347V50.5347Z" fill="white"/>
<path d="M335.867 20.8201H195.409V136.308H335.867V20.8201Z" stroke="#18216D" stroke-miterlimit="10"/>
<path d="M225.53 146.296C217.955 145.411 210.267 144.215 202.776 145.64C203.358 133.779 205.013 121.815 209.653 110.89C214.293 99.9655 222.138 90.0814 232.802 84.8793C246.12 78.3038 262.288 78.3038 276.324 82.4551C290.099 86.544 302.99 97.0835 312.801 107.311C317.978 112.711 322.552 118.659 326.441 125.05C327.438 126.579 328.235 128.23 328.813 129.961C329.274 131.567 329.391 133.252 329.158 134.906C328.925 136.561 328.347 138.148 327.461 139.564C321.572 148.866 307.62 145.952 298.589 146.847C290.494 147.68 282.379 148.21 274.243 148.439C257.974 148.917 241.693 148.201 225.53 146.296V146.296Z" fill="#18216D"/>
<path d="M227.486 102.858C228.526 98.7794 229.473 94.316 228.526 90.6121C227.558 86.6689 224.364 83.2354 222.658 79.5523C221.149 76.2126 220.359 72.2693 221.68 68.8983C221.753 68.6754 221.866 68.4675 222.013 68.2845C222.189 68.1418 222.393 68.0372 222.611 67.9774C222.83 67.9176 223.058 67.9039 223.282 67.9372C223.506 67.9704 223.721 68.0499 223.913 68.1706C224.104 68.2913 224.269 68.4506 224.396 68.6382C224.871 69.4197 225.192 70.285 225.342 71.1873C226.05 73.6843 227.746 75.7548 229.41 77.742C233.208 82.2991 238.056 85.2955 239.003 91.5589C239.617 95.6061 239.242 99.7991 239.638 103.888C240.106 108.664 240.876 113.397 241.323 118.173C241.781 123.157 243.238 138.222 237.391 140.667C233.718 142.207 224.697 140.969 221.847 138.024C221.035 137.095 220.415 136.015 220.022 134.845C219.629 133.676 219.471 132.44 219.558 131.21C219.746 128.753 220.282 126.336 221.149 124.031C222.949 118.496 224.926 112.992 226.352 107.332C226.664 105.938 227.08 104.429 227.486 102.858Z" fill="white" stroke="#18216D" stroke-miterlimit="10"/>
<path d="M292.856 124.155C292.845 124.069 292.816 123.985 292.771 123.91C292.726 123.835 292.666 123.77 292.595 123.719C292.523 123.668 292.442 123.632 292.356 123.614C292.271 123.597 292.182 123.596 292.096 123.614C289.683 121.128 287.123 118.339 284.189 116.571C283.939 116.415 283.544 116.748 283.752 117.008C284.934 118.401 286.21 119.711 287.571 120.93C288.986 122.345 290.401 123.771 291.795 125.217C292.159 125.602 293.012 125.342 292.939 124.748C292.908 124.551 292.887 124.353 292.856 124.155Z" fill="white"/>
<path d="M301.533 122.106C292.7 123.646 283.721 126.819 275.845 129.722C273.864 130.545 271.804 131.162 269.696 131.563C267.42 131.775 265.13 131.799 262.85 131.636C256.774 131.543 250.303 132.999 246.047 137.348C244.549 138.888 244.133 142.727 246.588 143.716C249.044 144.704 252.935 142.956 255.734 143.289C258.561 143.655 261.421 143.683 264.255 143.372C272.967 142.443 281.703 141.957 290.463 141.916C300.659 141.853 310.918 142.384 320.989 140.802C322.91 140.601 324.771 140.017 326.462 139.086C330.624 136.505 331.664 130.096 328.418 126.6C324.766 122.668 317.837 121.315 312.739 121.19C308.983 121.129 305.23 121.436 301.533 122.106V122.106Z" fill="white" stroke="#18216D" stroke-miterlimit="10"/>
<path d="M335.867 20.8201H195.409V136.308H335.867V20.8201Z" stroke="#18216D" stroke-miterlimit="10"/>
<path d="M201.184 14.3382H330.114C331.769 14.3382 333.357 14.9959 334.528 16.1666C335.699 17.3373 336.356 18.9252 336.356 20.5808V28.4048H194.91V20.612C194.906 19.787 195.065 18.9693 195.379 18.2063C195.693 17.4432 196.155 16.75 196.738 16.1666C197.322 15.5832 198.015 15.1212 198.778 14.8074C199.541 14.4935 200.359 14.3341 201.184 14.3382V14.3382Z" fill="#18216D"/>
<path d="M203.733 25.9494C205.859 25.9494 207.583 24.2259 207.583 22.0998C207.583 19.9738 205.859 18.2503 203.733 18.2503C201.607 18.2503 199.884 19.9738 199.884 22.0998C199.884 24.2259 201.607 25.9494 203.733 25.9494Z" fill="white"/>
<path d="M221.764 21.923C221.796 22.6813 221.602 23.4321 221.208 24.0806C220.814 24.7291 220.236 25.2462 219.548 25.5664C218.86 25.8866 218.092 25.9957 217.342 25.8799C216.592 25.764 215.893 25.4284 215.333 24.9154C214.774 24.4025 214.379 23.7352 214.199 22.9979C214.018 22.2607 214.061 21.4865 214.32 20.7732C214.58 20.0599 215.045 19.4396 215.657 18.9905C216.268 18.5414 217 18.2838 217.758 18.2502C218.776 18.2079 219.769 18.5707 220.52 19.2591C221.27 19.9475 221.718 20.9054 221.764 21.923V21.923Z" fill="white"/>
<path d="M221.764 21.9229C221.796 22.6813 221.602 23.4321 221.208 24.0806C220.814 24.7291 220.236 25.2461 219.548 25.5664C218.86 25.8866 218.092 25.9957 217.342 25.8798C216.592 25.764 215.893 25.4284 215.333 24.9154C214.774 24.4025 214.379 23.7352 214.199 22.9979C214.018 22.2607 214.061 21.4865 214.32 20.7732C214.58 20.0599 215.045 19.4395 215.657 18.9905C216.268 18.5414 217 18.2838 217.758 18.2502C218.776 18.2079 219.769 18.5707 220.52 19.2591C221.27 19.9475 221.718 20.9054 221.764 21.9229V21.9229Z" fill="white"/>
<path d="M213.45 17.4179L222.398 26.7817" stroke="#18216D" stroke-miterlimit="10"/>
<path d="M213.243 26.5732L222.607 17.6151" stroke="#18216D" stroke-miterlimit="10"/>
<path d="M330.665 186.768H168.358V302.256H330.665V186.768Z" fill="white" stroke="#18216D" stroke-miterlimit="10"/>
<path d="M277.166 246.76C283.69 249.673 291.659 249.579 299.962 244.325C319.095 232.214 313.581 191.263 281.817 199.295C252.092 206.849 258.886 238.603 277.166 246.76Z" fill="#005FEC"/>
<path d="M305.684 221.612C302.365 222.726 299.213 224.245 295.852 225.275C292.78 226.203 289.652 226.94 286.489 227.48C286.634 223.319 286.821 219.126 287.05 214.902C287.29 210.542 288.091 205.902 287.685 201.553C287.685 201.272 287.238 201.178 287.165 201.48C286.124 205.579 286.187 210.178 285.906 214.381C285.601 219.015 285.351 223.641 285.157 228.261C285.157 228.361 285.18 228.46 285.224 228.55C285.268 228.64 285.332 228.719 285.412 228.78C285.491 228.842 285.583 228.884 285.682 228.904C285.78 228.924 285.882 228.921 285.979 228.895C292.7 227.855 300.253 226.242 306.153 222.726C306.725 222.382 306.361 221.383 305.684 221.612Z" fill="#18216D"/>
<path d="M287.935 246.635C287.857 246.283 287.905 245.915 288.07 245.594C288.226 245.303 287.904 244.908 287.602 245.116C287.362 245.271 287.165 245.483 287.029 245.734C286.892 245.985 286.821 246.266 286.822 246.551C286.822 247.051 287.092 247.862 287.727 247.8C287.808 247.796 287.886 247.767 287.949 247.717C288.013 247.666 288.059 247.597 288.08 247.519C288.237 247.228 287.997 246.957 287.935 246.635Z" fill="#18216D"/>
<path d="M266.71 223.173C266.387 222.538 265.992 222.986 265.576 223.173C265.061 223.293 264.533 223.346 264.005 223.329C263.422 223.381 262.839 223.454 262.257 223.558C261.893 223.631 261.872 224.265 262.257 224.318C263.344 224.515 264.452 224.578 265.555 224.505C266.138 224.411 267.084 223.901 266.71 223.173Z" fill="#18216D"/>
<path d="M288.236 198.723C288.176 198.666 288.1 198.629 288.018 198.618C287.935 198.607 287.852 198.622 287.779 198.661C287.503 198.836 287.298 199.104 287.201 199.417C287.104 199.729 287.12 200.066 287.248 200.367C287.276 200.472 287.331 200.568 287.407 200.644C287.484 200.721 287.58 200.776 287.685 200.804C287.778 200.823 287.874 200.823 287.967 200.802C288.059 200.781 288.147 200.741 288.223 200.684C288.298 200.627 288.361 200.554 288.407 200.471C288.452 200.387 288.479 200.295 288.486 200.2C288.562 199.952 288.579 199.689 288.536 199.432C288.492 199.176 288.39 198.933 288.236 198.723V198.723Z" fill="#18216D"/>
<path d="M267.823 209.419C267.326 209.262 266.818 209.14 266.304 209.054C265.93 208.982 265.638 209.502 266.023 209.71C266.462 209.94 266.914 210.145 267.376 210.324C267.75 210.459 268.218 210.698 268.583 210.417C268.636 210.382 268.677 210.331 268.701 210.272C268.725 210.212 268.731 210.147 268.718 210.084C268.614 209.658 268.198 209.554 267.823 209.419Z" fill="#18216D"/>
<path d="M273.889 205.35C273.566 205.059 273.233 204.809 272.848 204.529C272.463 204.248 272.287 203.946 271.964 203.717C271.904 203.682 271.834 203.665 271.764 203.67C271.695 203.674 271.628 203.699 271.572 203.741C271.516 203.783 271.474 203.841 271.452 203.907C271.429 203.973 271.426 204.045 271.444 204.112C271.643 204.545 271.931 204.931 272.29 205.245C272.648 205.559 273.069 205.793 273.525 205.933C273.6 205.958 273.681 205.957 273.756 205.93C273.83 205.903 273.893 205.852 273.935 205.785C273.977 205.717 273.995 205.638 273.987 205.56C273.979 205.481 273.944 205.407 273.889 205.35V205.35Z" fill="#18216D"/>
<path d="M270.487 237.947C269.804 238.429 269.188 238.999 268.655 239.643C268.406 239.966 268.728 240.538 269.134 240.267C269.817 239.782 270.433 239.208 270.965 238.561C271.225 238.259 270.872 237.666 270.487 237.947Z" fill="#18216D"/>
<path d="M276.792 242.785C276.573 243.16 276.344 243.534 276.116 243.909C275.887 244.283 275.71 244.502 275.845 244.949C275.879 245.057 275.952 245.149 276.051 245.205C276.149 245.261 276.265 245.277 276.376 245.251C276.802 245.136 276.906 244.876 277.094 244.491L277.676 243.316C277.711 243.258 277.734 243.193 277.744 243.126C277.754 243.059 277.751 242.991 277.734 242.925C277.718 242.86 277.689 242.798 277.648 242.743C277.608 242.689 277.557 242.643 277.499 242.608C277.441 242.573 277.377 242.55 277.31 242.54C277.243 242.53 277.175 242.534 277.109 242.55C277.043 242.567 276.981 242.596 276.927 242.636C276.873 242.676 276.827 242.727 276.792 242.785V242.785Z" fill="#18216D"/>
<path d="M298.734 243.742C298.526 243.669 298.183 243.586 298.152 243.305C298.146 243.206 298.105 243.112 298.037 243.039C297.969 242.966 297.878 242.92 297.779 242.907C297.68 242.895 297.58 242.918 297.496 242.971C297.412 243.025 297.349 243.106 297.319 243.201C297.243 243.411 297.223 243.637 297.261 243.857C297.3 244.077 297.396 244.282 297.539 244.453C297.683 244.624 297.869 244.754 298.079 244.83C298.288 244.907 298.515 244.926 298.734 244.887C299.369 244.772 299.223 243.93 298.734 243.742Z" fill="#18216D"/>
<path d="M273.733 312.629C275.679 315.053 279.414 314.648 282.42 313.898C285.427 313.149 288.996 312.39 291.306 314.46C292.285 304.026 289.637 293.573 283.807 284.864C277.977 276.156 269.322 269.723 259.302 266.653C250.979 264.093 243.269 265.081 234.779 265.612C224.895 266.247 215.313 269.722 206.792 274.674C193.953 282.145 177.316 294.037 172.874 308.759" fill="#18216D"/>
<path d="M224.323 288.824C223.328 288.142 222.432 287.326 221.659 286.4C220.978 285.396 220.508 284.264 220.279 283.073C220.05 281.881 220.067 280.655 220.328 279.471C220.861 277.109 221.624 274.806 222.606 272.593C227.465 259.869 226.539 245.906 231.283 233.057C232.126 230.789 233.052 227.855 234.592 225.972C236.231 224.273 238.089 222.799 240.117 221.592C247.493 216.598 257.918 213.081 265.295 220.021C269.269 223.766 270.112 229.749 269.977 235.211C269.808 242.816 268.239 250.325 265.347 257.361C264.667 258.99 263.654 260.458 262.373 261.671C261.092 262.884 259.571 263.815 257.908 264.405C254.974 265.446 253.673 265.134 252.321 267.974C250.799 271.621 250.254 275.601 250.739 279.523C251.119 281.231 251.318 282.975 251.333 284.725C250.5 294.266 239.399 294.494 232.355 292.799C229.469 291.944 226.752 290.6 224.323 288.824V288.824Z" fill="white" stroke="#18216D" stroke-miterlimit="10"/>
<path d="M295.634 254.906C296.275 253.453 297.202 252.144 298.36 251.057C300.734 249.04 303.344 247.318 306.132 245.927C306.271 245.829 306.428 245.76 306.594 245.724C306.761 245.688 306.932 245.687 307.099 245.719C307.273 245.804 307.411 245.948 307.489 246.125C307.567 246.302 307.58 246.501 307.526 246.687C307.414 247.055 307.214 247.391 306.943 247.665L305.039 249.933C302.771 252.638 308.046 250.973 308.889 250.651C311.264 249.791 313.459 248.496 315.36 246.832C316.012 246.227 316.708 245.671 317.441 245.168C318.394 244.527 319.548 244.253 320.687 244.398C321.475 244.596 322.179 245.042 322.696 245.669C323.212 246.296 323.515 247.072 323.559 247.883C323.736 251.483 320.563 255.458 317.982 257.247C315.106 259.254 311.87 260.688 308.452 261.471C308.149 261.534 307.87 261.679 307.644 261.89C307.419 262.101 307.255 262.37 307.172 262.668L298.048 295.691C297.115 299.172 295.986 302.597 294.666 305.95C293.178 309.695 291.066 313.389 286.957 314.606C285.51 315.017 283.983 315.054 282.518 314.714C281.053 314.373 279.699 313.667 278.581 312.66C271.402 306.178 279.07 293.069 281.755 286.223C284.286 279.814 286.988 273.478 289.859 267.214C291.295 264.086 292.78 260.965 294.312 257.851C294.791 256.8 295.186 255.811 295.634 254.906Z" fill="white" stroke="#18216D" stroke-miterlimit="10"/>
<path d="M227.486 222.195C228.569 221.013 229.718 219.895 230.929 218.845C228.942 217.482 227.08 215.183 227.808 212.883C228.243 211.765 229.052 210.831 230.097 210.241C231.423 209.385 232.912 208.813 234.47 208.561C236.027 208.308 237.62 208.381 239.149 208.774C241.87 209.608 244.34 211.106 246.338 213.133C246.624 213.448 246.981 213.69 247.379 213.84C247.692 213.898 248.012 213.898 248.325 213.84L258.126 212.894C260.672 212.559 263.246 212.5 265.805 212.717C269.779 213.195 274.076 215.214 274.44 219.615C274.804 224.016 271.589 227.938 267.781 229.821C263.713 231.777 259.042 231.902 254.537 231.954C250.032 232.006 245.371 232.058 241.25 233.9C239.402 234.594 237.888 235.967 237.016 237.739C236.589 238.779 236.423 240.194 235.382 240.715C233.791 241.526 233.603 241.641 232.989 243.378C232.282 245.397 231.47 247.394 230.607 249.361C229.743 251.327 227.121 255.603 224.468 253.439C222.492 251.837 222.7 245.116 222.585 242.712C222.294 237.156 222.471 229.697 225.498 224.817C226.084 223.887 226.749 223.01 227.486 222.195V222.195Z" fill="#18216D"/>
<path d="M259.406 253.803C259.096 253.929 258.763 253.987 258.429 253.972C258.096 253.958 257.769 253.872 257.471 253.72C257.044 253.533 256.43 253.949 256.774 254.428C257.147 254.956 257.706 255.324 258.339 255.458C258.972 255.591 259.632 255.479 260.186 255.145C261.071 254.636 260.301 253.397 259.406 253.803Z" fill="#18216D"/>
<path d="M252.726 241.443C251.852 240.892 249.917 242.317 251.603 243.066C252.289 243.368 253.309 242.671 253.059 241.89C253.009 241.704 252.89 241.544 252.726 241.443Z" fill="#18216D"/>
<path d="M267.23 241.058C267.034 240.904 266.792 240.821 266.543 240.821C266.294 240.821 266.053 240.904 265.857 241.058C265.724 241.195 265.644 241.374 265.629 241.563C265.614 241.753 265.665 241.942 265.773 242.098C265.805 242.223 265.854 242.342 265.919 242.452C266.003 242.586 266.135 242.683 266.287 242.723C266.44 242.764 266.602 242.745 266.741 242.671C266.928 242.58 267.093 242.451 267.226 242.291C267.359 242.131 267.456 241.945 267.511 241.745C267.542 241.615 267.532 241.479 267.481 241.356C267.431 241.233 267.343 241.129 267.23 241.058V241.058Z" fill="#18216D"/>
<path d="M261.185 242.546C261.06 242.171 260.395 242.067 260.322 242.546C260.146 243.873 259.882 245.187 259.531 246.479C259.292 247.342 258.792 248.487 259.333 249.319C259.77 249.985 261.019 249.569 260.696 248.747C260.374 247.925 261.123 246.198 261.279 245.303C261.477 244.39 261.445 243.443 261.185 242.546V242.546Z" fill="#18216D"/>
<path d="M231.596 241.276C230.823 241.359 230.085 241.638 229.452 242.088C228.684 242.507 228.035 243.116 227.569 243.857C226.953 244.839 226.642 245.982 226.676 247.142C226.709 248.301 227.085 249.424 227.756 250.37C228.421 251.215 229.386 251.771 230.451 251.92C231.516 252.07 232.597 251.801 233.468 251.171C236.995 248.664 237.422 240.694 231.596 241.276Z" fill="white"/>
<path d="M232.449 244.731C232.102 244.76 231.766 244.869 231.468 245.05C231.17 245.23 230.918 245.477 230.732 245.771C230.504 246.063 230.363 246.412 230.325 246.78C230.286 247.148 230.351 247.519 230.513 247.852C230.567 247.956 230.659 248.035 230.77 248.072C230.88 248.109 231.001 248.101 231.106 248.05C231.387 247.904 231.325 247.509 231.346 247.238C231.35 246.867 231.468 246.507 231.684 246.206C231.9 245.904 232.203 245.676 232.553 245.553C232.969 245.386 232.906 244.679 232.449 244.731Z" fill="#18216D"/>
<path d="M237.255 260.483C235.081 258.974 232.324 255.686 232.553 252.659L232.261 252.576C231.318 252.355 230.4 252.035 229.525 251.618C229.65 251.681 229.525 256.217 229.619 256.716C229.819 258.522 230.199 260.303 230.753 262.033C231.419 264.114 233.083 270.18 236.35 268.276C237.932 267.36 239.472 266.403 241.022 265.425C241.844 264.905 242.645 264.384 243.467 263.854L243.737 263.698C241.456 262.89 239.279 261.811 237.255 260.483V260.483Z" fill="#18216D"/>
<path d="M304.519 250.932C304.488 250.865 304.434 250.811 304.366 250.78C304.299 250.749 304.223 250.743 304.152 250.763C304.081 250.783 304.019 250.828 303.977 250.889C303.936 250.951 303.918 251.025 303.926 251.098C304.036 251.826 304.001 252.569 303.822 253.283C303.643 253.997 303.325 254.669 302.886 255.26C302.636 255.624 303.166 255.978 303.468 255.707C304.102 255.108 304.541 254.333 304.728 253.481C304.916 252.63 304.843 251.741 304.519 250.932Z" fill="#18216D"/>
<path d="M307.266 257.434C305.913 257.116 304.492 257.259 303.229 257.84C302.161 258.238 301.273 259.011 300.732 260.015C300.708 260.077 300.706 260.146 300.728 260.209C300.75 260.272 300.794 260.326 300.851 260.36C300.909 260.393 300.977 260.406 301.043 260.394C301.109 260.382 301.168 260.347 301.211 260.296C301.957 259.311 303.051 258.649 304.269 258.444C305.306 258.389 306.332 258.214 307.328 257.923C307.557 257.809 307.464 257.518 307.266 257.434Z" fill="#18216D"/>
<path d="M330.665 186.768H168.358V302.256H330.665V186.768Z" stroke="#18216D" stroke-miterlimit="10"/>
<path d="M174.133 176.645H324.912C326.567 176.645 328.155 177.303 329.326 178.473C330.496 179.644 331.154 181.232 331.154 182.888V190.712H167.859V182.888C167.859 182.065 168.021 181.251 168.337 180.491C168.653 179.732 169.115 179.042 169.698 178.462C170.281 177.882 170.973 177.423 171.734 177.111C172.495 176.799 173.31 176.641 174.133 176.645V176.645Z" fill="#18216D"/>
<path d="M176.682 188.256C178.808 188.256 180.532 186.533 180.532 184.407C180.532 182.281 178.808 180.557 176.682 180.557C174.556 180.557 172.832 182.281 172.832 184.407C172.832 186.533 174.556 188.256 176.682 188.256Z" fill="white"/>
<path d="M194.713 184.23C194.745 184.988 194.551 185.739 194.157 186.387C193.763 187.036 193.185 187.553 192.497 187.873C191.809 188.193 191.041 188.303 190.291 188.187C189.541 188.071 188.842 187.735 188.282 187.222C187.723 186.709 187.328 186.042 187.148 185.305C186.967 184.567 187.01 183.793 187.269 183.08C187.529 182.367 187.994 181.746 188.606 181.297C189.217 180.848 189.949 180.591 190.707 180.557C191.725 180.515 192.718 180.878 193.469 181.566C194.219 182.254 194.667 183.212 194.713 184.23Z" fill="white"/>
<path d="M194.712 184.23C194.745 184.988 194.551 185.739 194.157 186.387C193.762 187.036 193.185 187.553 192.496 187.873C191.808 188.193 191.041 188.303 190.291 188.187C189.54 188.071 188.842 187.735 188.282 187.222C187.723 186.709 187.328 186.042 187.147 185.305C186.967 184.567 187.009 183.793 187.269 183.08C187.528 182.367 187.993 181.746 188.605 181.297C189.217 180.848 189.948 180.591 190.707 180.557C191.724 180.515 192.718 180.877 193.468 181.566C194.219 182.254 194.666 183.212 194.712 184.23Z" fill="white"/>
<path d="M186.399 179.725L195.347 189.089" stroke="#18216D" stroke-miterlimit="10"/>
<path d="M186.191 188.88L195.555 179.922" stroke="#18216D" stroke-miterlimit="10"/>
<path d="M314.653 171.12L327.347 155.472L332.341 171.12L343.317 154.952L348.467 171.12L359.256 155.212L364.334 171.12L374.686 155.868" stroke="#18216D" stroke-miterlimit="10"/>
<path d="M139.861 292.851L152.554 277.202L157.548 292.851L168.525 276.682L173.675 292.851L184.475 276.942L189.542 292.851" stroke="#00ECD0" stroke-width="2" stroke-miterlimit="10"/>
<path d="M216.749 364.734C217.031 363.933 217.504 363.213 218.128 362.638C218.753 362.062 219.508 361.648 220.329 361.431C221.15 361.215 222.011 361.202 222.838 361.395C223.665 361.588 224.432 361.981 225.072 362.538L225.395 362.809C226.062 363.38 226.862 363.774 227.722 363.952C228.582 364.131 229.473 364.089 230.312 363.83C231.151 363.572 231.911 363.105 232.521 362.473C233.132 361.842 233.572 361.066 233.801 360.218L235.456 353.892C235.684 353.044 236.123 352.267 236.733 351.634C237.342 351.001 238.102 350.533 238.942 350.274C239.781 350.014 240.673 349.971 241.533 350.149C242.394 350.327 243.195 350.72 243.862 351.291L244.06 351.468C244.727 352.04 245.527 352.433 246.387 352.612C247.247 352.79 248.138 352.748 248.977 352.49C249.817 352.231 250.577 351.764 251.187 351.133C251.797 350.501 252.237 349.725 252.467 348.878L254.027 342.916C254.255 342.067 254.695 341.29 255.304 340.658C255.914 340.025 256.674 339.557 257.513 339.297C258.353 339.037 259.244 338.994 260.105 339.172C260.965 339.35 261.766 339.743 262.434 340.315C263.101 340.886 263.901 341.28 264.761 341.458C265.621 341.637 266.512 341.595 267.351 341.336C268.191 341.078 268.951 340.611 269.561 339.979C270.171 339.348 270.611 338.572 270.841 337.724" stroke="#18216D" stroke-miterlimit="10"/>
<path d="M1.68311 331.57C1.96507 330.769 2.43875 330.05 3.06281 329.474C3.68688 328.898 4.44235 328.484 5.26329 328.268C6.08424 328.051 6.94571 328.039 7.7725 328.232C8.59929 328.425 9.36628 328.817 10.0065 329.375L10.3291 329.645C10.9959 330.217 11.7965 330.61 12.6563 330.789C13.5161 330.967 14.4071 330.925 15.2464 330.667C16.0856 330.408 16.8457 329.941 17.4558 329.31C18.0659 328.678 18.5063 327.902 18.7357 327.055L20.39 320.729C20.6182 319.88 21.0575 319.103 21.6671 318.471C22.2767 317.838 23.0366 317.37 23.876 317.11C24.7154 316.85 25.6069 316.807 26.4674 316.985C27.3278 317.163 28.1292 317.556 28.7967 318.128L28.9943 318.305C29.6611 318.876 30.4617 319.269 31.3216 319.448C32.1814 319.627 33.0724 319.585 33.9116 319.326C34.7509 319.067 35.511 318.601 36.1211 317.969C36.7312 317.337 37.1715 316.562 37.401 315.714L38.9616 309.752" stroke="#00ECD0" stroke-width="2" stroke-miterlimit="10"/>
<path d="M305.58 1.09359C306.371 0.798102 307.222 0.69948 308.059 0.806233C308.897 0.912986 309.695 1.22191 310.387 1.70633C311.078 2.19076 311.641 2.83613 312.027 3.58676C312.413 4.33739 312.611 5.17071 312.603 6.01481V6.44139C312.597 7.31905 312.812 8.18409 313.23 8.95599C313.648 9.72788 314.254 10.3815 314.993 10.8561C315.731 11.3307 316.577 11.6107 317.453 11.6702C318.329 11.7296 319.205 11.5666 320.001 11.1961L325.91 8.37659C326.706 8.00618 327.583 7.84311 328.458 7.90257C329.334 7.96203 330.18 8.24207 330.919 8.71663C331.657 9.19119 332.263 9.84485 332.681 10.6167C333.099 11.3886 333.314 12.2537 333.308 13.1313V13.4123C333.301 14.2899 333.517 15.155 333.935 15.9269C334.352 16.6988 334.959 17.3524 335.697 17.827C336.435 18.3015 337.282 18.5816 338.157 18.641C339.033 18.7005 339.91 18.5374 340.705 18.167L346.272 15.5139C347.068 15.1412 347.945 14.9762 348.822 15.0345C349.7 15.0928 350.548 15.3725 351.287 15.8473C352.027 16.3221 352.635 16.9767 353.053 17.7499C353.471 18.5231 353.687 19.3896 353.679 20.2687V20.2687C353.674 21.145 353.89 22.0085 354.307 22.7791C354.724 23.5497 355.329 24.2025 356.066 24.6768C356.803 25.151 357.647 25.4315 358.522 25.4921C359.396 25.5527 360.271 25.3915 361.066 25.0234" stroke="#18216D" stroke-miterlimit="10"/>
<path d="M362.107 249.777C360.505 247.91 359.286 245.747 358.521 243.409C357.755 241.072 357.457 238.607 357.644 236.154C357.831 233.702 358.499 231.31 359.61 229.116C360.721 226.921 362.254 224.967 364.12 223.365C367.89 220.13 372.79 218.525 377.743 218.902C382.696 219.28 387.296 221.609 390.532 225.379" stroke="#00ECD0" stroke-width="2" stroke-miterlimit="10"/>
<path d="M516.902 30.184C522.361 30.184 526.786 25.7587 526.786 20.2999C526.786 14.8411 522.361 10.4158 516.902 10.4158C511.444 10.4158 507.018 14.8411 507.018 20.2999C507.018 25.7587 511.444 30.184 516.902 30.184Z" fill="#005FEC"/>
<path d="M544.546 287.763C547.473 287.763 550.37 288.339 553.073 289.459C555.777 290.58 558.233 292.221 560.301 294.291C562.37 296.36 564.01 298.817 565.129 301.521C566.248 304.225 566.823 307.123 566.822 310.049" fill="white"/>
<path d="M544.546 287.763C547.473 287.763 550.37 288.339 553.073 289.459C555.777 290.58 558.233 292.221 560.301 294.291C562.37 296.36 564.01 298.817 565.129 301.521C566.248 304.225 566.823 307.123 566.822 310.049" stroke="#18216D" stroke-miterlimit="10"/>
<path d="M557.999 3.13283L526.786 34.3457" stroke="#18216D" stroke-miterlimit="10"/>
<rect x="195.639" y="136.817" width="135.256" height="17.6873" fill="white"/>
<rect x="170.668" y="302.766" width="129.013" height="21.849" fill="white"/>
<rect x="374.592" y="176.874" width="169.59" height="32.2533" fill="white"/>
<path d="M517.953 199.254L536.92 183.616L541.904 199.254L558.602 183.096L563.753 199.254L580.181 183.356L585.248 199.254L601 184.001" stroke="#00ECD0" stroke-width="2" stroke-miterlimit="10"/>
<path d="M431.587 194.051L400.374 225.264" stroke="#18216D" stroke-miterlimit="10"/>
<path d="M423.263 208.617L392.05 239.83" stroke="#18216D" stroke-miterlimit="10"/>
</svg>
